<?xml version="1.0" encoding="utf-8"?>
<!-- Generator: Adobe Illustrator 22.0.1, SVG Export Plug-In . SVG Version: 6.00 Build 0)  -->
<svg version="1.1" id="Layer_1" xmlns="http://www.w3.org/2000/svg" xmlns:xlink="http://www.w3.org/1999/xlink" x="0px" y="0px"
	 viewBox="0 0 105 65" style="enable-background:new 0 0 105 65;" xml:space="preserve">
<style type="text/css">
	.st0{clip-path:url(#SVGID_2_);}
	.st1{clip-path:url(#SVGID_4_);fill:#FFC627;}
</style>
<title>joe</title>
<g id="JOE_x5F_Logo_x5F_RGB_x5F_Transparent_1_">
	<g>
		<defs>
			<rect id="SVGID_1_" y="-0.4" width="105" height="65.7"/>
		</defs>
		<clipPath id="SVGID_2_">
			<use xlink:href="#SVGID_1_"  style="overflow:visible;"/>
		</clipPath>
		<g class="st0">
			<defs>
				<rect id="SVGID_3_" x="0" y="-0.4" width="105" height="65.7"/>
			</defs>
			<clipPath id="SVGID_4_">
				<use xlink:href="#SVGID_3_"  style="overflow:visible;"/>
			</clipPath>
			<path class="st1" d="M49.5,16.1c-2.2,0-3.6,1.2-3.6,4.4v24.1c0,3.2,1.4,4.4,3.6,4.4c2.2,0,3.6-1.2,3.6-4.4V20.5
				C53.1,17.3,51.7,16.1,49.5,16.1"/>
			<path class="st1" d="M0,65.4h105V-0.4H0V65.4z M26,43.8C26,52.7,21.2,55,15.9,55c-1.3,0-2.3,0-3.4-0.1v-6.5
				c0.8,0.1,1.7,0.1,2.4,0.1c2.2,0,4-0.8,4-4.3V10.2h7V43.8z M60.2,44.1c0,7.2-3.8,11.3-10.7,11.3s-10.7-4.1-10.7-11.3V20.9
				c0-7.2,3.8-11.3,10.7-11.3c6.9,0,10.7,4.1,10.7,11.3V44.1z M92.4,16.6H80.3V29h9.6v6.3h-9.6v13.1h12.1v6.3H73.4V10.2h19.1
				L92.4,16.6L92.4,16.6z"/>
		</g>
	</g>
</g>
</svg>
